<svg width="18" height="20" viewBox="0 0 18 20" fill="none" xmlns="http://www.w3.org/2000/svg">
<path d="M4.846 17H2C1.5 17 1 16.5 1 16L3 2C3 1.5 3.5 1 4 1H9.538C12.61 1 14.5 3 14.5 6C14.5 8.5 11.998 10.997 9.538 10.997L7 11C6.43 11 6.089 11.436 6 12L4.846 17ZM4.846 17L4.622 18.419C4.61073 18.4904 4.61506 18.5634 4.6347 18.6329C4.65435 18.7025 4.68883 18.7669 4.73579 18.8219C4.78274 18.8768 4.84104 18.9209 4.90668 18.9511C4.97232 18.9814 5.04373 18.997 5.116 18.997L7.828 18.999C8.06633 18.9995 8.29696 18.9146 8.47818 18.7598C8.65939 18.605 8.77922 18.3905 8.816 18.155L9.392 14.505H12.021H12C14.46 14.505 17 12.467 17 10C17 8 16.204 6.153 14.467 5.163" stroke="#007A4B" stroke-width="2" stroke-linecap="round" stroke-linejoin="round"/>
</svg>
